<svg width="537" height="454" viewBox="0 0 537 454" fill="none" xmlns="http://www.w3.org/2000/svg">
<path fill-rule="evenodd" clip-rule="evenodd" d="M0 29.439V58.878L4.25 59.566C14.085 61.156 23.642 67.898 28.333 76.554L30.5 80.554L30.762 235.018L31.025 389.483L28.444 394.757C24.368 403.089 14.445 410 4.20801 411.637L0 412.31V432.682V453.054L182.25 453.044C363.893 453.033 375.579 452.842 399.5 449.491C460.666 440.923 505.516 413.923 525.514 373.63C534.335 355.855 536.314 346.673 536.416 323.054C536.51 301.179 534.804 292.155 527.639 276.649C512.959 244.876 480.757 222.523 439.677 215.59L426.855 213.426L433.495 212.203C461.289 207.082 489.249 183.72 500.069 156.576C506.754 139.806 508.616 120.357 505.511 99.751C498.21 51.314 462.694 16.633 409 5.50897C384.317 0.394972 395.689 0.665984 190.75 0.320984L0 0V29.439ZM336.734 76.375C376.19 82.531 398.892 96.793 406.036 119.909C408.377 127.485 408.63 140.098 406.594 147.744C399.58 174.09 369.301 196.071 326.75 205.706L319 207.461V227.05V246.638L333.614 248.902C392.485 258.021 425.463 283.663 419.998 316.069C415.466 342.936 388.044 361.823 343.877 368.5C323.863 371.525 298.642 372.139 206.5 371.845L115.5 371.554L115 333.054L114.5 294.554L110.941 289.054C91.924 259.66 87.018 215.668 98.508 177.554C101.185 168.675 108.379 153.422 112.396 148.11L115 144.665V109.874V75.082L147.25 74.818C249.634 73.98 325.377 74.602 336.734 76.375ZM268.5 84.655C215.464 88.778 179.357 102.04 149.641 128.312C129.694 145.947 115.497 173.779 112.038 202.028C100.673 294.832 172.209 358.978 287.144 359.044C337.398 359.073 375.118 348.307 399.281 327.038C401.877 324.753 404 322.446 404 321.91C404 320.376 369.835 275.822 366.599 273.136C365.184 271.962 364.058 272.387 358.123 276.333C336.152 290.943 313.518 297.168 282.5 297.133C234.635 297.077 205.396 278.227 195.43 240.996C193.059 232.139 193.017 212.967 195.348 203.554C200.322 183.464 213.288 167.733 232.85 158.052C264.419 142.429 313.171 145.482 346.284 165.153C350.085 167.412 353.555 168.875 353.995 168.407C354.435 167.938 361.94 157.429 370.673 145.054C379.406 132.679 387.613 121.124 388.91 119.376C392.03 115.174 391.428 114.079 382.808 108.263C365.335 96.476 346.727 89.888 321.5 86.561C309.753 85.011 278.413 83.884 268.5 84.655Z" fill="black"/>
</svg>
